HIERARCHY
ROOT root
{
	OFFSET 0.000000 0.000000 0.000000
	CHANNELS 6 Xposition Yposition Zposition Zrotation Yrotation Xrotation
	JOINT lhip
	{
		OFFSET 0.058581 -0.082280 -0.017664
		CHANNELS 3 Zrotation Yrotation Xrotation
		JOINT lknee
		{
			OFFSET 0.043451 -0.386469 0.008037
			CHANNELS 3 Zrotation Yrotation Xrotation
			JOINT lankle
			{
				OFFSET -0.014790 -0.426874 -0.037428
				CHANNELS 3 Zrotation Yrotation Xrotation
				JOINT ltoe
				{
					OFFSET 0.041054 -0.060286 0.122042
					CHANNELS 3 Zrotation Yrotation Xrotation
					End Site
					{
						OFFSET 0.000000 0.000000 0.000000
					}
				}
			}
		}
	}
	JOINT rhip
	{
		OFFSET -0.060310 -0.090513 -0.013543
		CHANNELS 3 Zrotation Yrotation Xrotation
		JOINT rknee
		{
			OFFSET -0.043257 -0.383688 -0.004843
			CHANNELS 3 Zrotation Yrotation Xrotation
			JOINT rankle
			{
				OFFSET 0.019056 -0.420046 -0.034562
				CHANNELS 3 Zrotation Yrotation Xrotation
				JOINT rtoe
				{
					OFFSET -0.034840 -0.062106 0.130323
					CHANNELS 3 Zrotation Yrotation Xrotation
					End Site
					{
						OFFSET 0.000000 0.000000 0.000000
					}
				}
			}
		}
	}
	JOINT lowerback
	{
		OFFSET 0.004439 0.124404 -0.038385
		CHANNELS 3 Zrotation Yrotation Xrotation
		JOINT upperback
		{
			OFFSET 0.004488 0.137956 0.026820
			CHANNELS 3 Zrotation Yrotation Xrotation
			JOINT chest
			{
				OFFSET -0.002265 0.056032 0.002855
				CHANNELS 3 Zrotation Yrotation Xrotation
				JOINT lowerneck
				{
					OFFSET -0.013390 0.211636 -0.033468
					CHANNELS 3 Zrotation Yrotation Xrotation
					JOINT upperneck
					{
						OFFSET 0.010113 0.088937 0.050410
						CHANNELS 3 Zrotation Yrotation Xrotation
						End Site
						{
							OFFSET 0.000000 0.000000 0.000000
						}
					}
				}
				JOINT lclavicle
				{
					OFFSET 0.071702 0.114000 -0.018898
					CHANNELS 3 Zrotation Yrotation Xrotation
					JOINT lshoulder
					{
						OFFSET 0.122921 0.045205 -0.019046
						CHANNELS 3 Zrotation Yrotation Xrotation
						JOINT lelbow
						{
							OFFSET 0.255332 -0.015649 -0.022946
							CHANNELS 3 Zrotation Yrotation Xrotation
							JOINT lwrist
							{
								OFFSET 0.265709 0.012698 -0.007375
								CHANNELS 3 Zrotation Yrotation Xrotation
								End Site
								{
									OFFSET 0.000000 0.000000 0.000000
								}
							}
						}
					}
				}
				JOINT rclavicle
				{
					OFFSET -0.082954 0.112472 -0.023707
					CHANNELS 3 Zrotation Yrotation Xrotation
					JOINT rshoulder
					{
						OFFSET -0.113228 0.046853 -0.008472
						CHANNELS 3 Zrotation Yrotation Xrotation
						JOINT relbow
						{
							OFFSET -0.260127 -0.014369 -0.031269
							CHANNELS 3 Zrotation Yrotation Xrotation
							JOINT rwrist
							{
								OFFSET -0.269108 0.006794 -0.006027
								CHANNELS 3 Zrotation Yrotation Xrotation
								End Site
								{
									OFFSET 0.000000 0.000000 0.000000
								}
							}
						}
					}
				}
			}
		}
	}
}
MOTION
Frames: 8
Frame Time: 0.033333
0.138650 -0.605027 1.003032 10.397505 7.530329 88.613259 -3.402481 0.658869 -18.211384 -2.962775 13.103934 17.843254 9.080397 18.170575 5.229877 0.000000 -0.000000 0.000000 11.620765 -1.909073 -8.218240 6.600472 -9.677080 39.750412 7.797907 -0.851665 12.010838 0.000000 -0.000000 0.000000 -4.265720 3.923240 18.393546 2.535415 -3.545415 -1.911934 1.400331 1.000180 2.014255 -2.412301 -5.665564 11.663420 6.880012 -10.465842 -0.178745 -16.694815 -0.961693 -0.959136 -37.004584 -2.973393 -0.854781 10.314041 -13.986102 -7.633245 16.391398 -3.910637 10.519449 21.982224 5.115396 -0.677439 53.229224 3.176642 11.602632 -10.953786 27.089693 11.431519 -10.204504 6.888317 12.880219 
0.142290 -0.584702 0.988847 9.194039 6.264946 90.143571 -5.618920 0.950054 -20.517680 -2.353045 15.774718 16.308644 9.960474 16.800436 3.454768 0.000000 -0.000000 0.000000 12.724208 -1.607848 -7.306172 5.754652 -5.593084 35.326298 4.606422 -0.206142 3.818312 0.000000 -0.000000 0.000000 -4.022438 3.987995 17.200252 2.397600 -3.873980 -2.239842 1.245220 0.880706 2.593382 -3.439681 -9.067354 8.894193 6.527291 -14.245891 -1.298005 -17.406809 -0.692366 -0.764169 -42.843364 -4.248923 1.779288 9.825265 -16.577669 -6.529907 16.224157 -3.172118 4.249234 22.008272 5.555678 -0.978945 54.723219 5.351191 12.305706 -11.878658 26.878199 10.162975 -10.442117 6.595732 12.172780 
0.146714 -0.563731 0.972142 8.175495 4.947376 90.510708 -6.062089 -0.458376 -23.059571 -3.341362 14.143578 18.483186 9.353725 15.546921 0.376836 0.000000 -0.000000 0.000000 12.740013 -0.397559 -5.867685 4.894082 -1.538402 32.594460 1.316895 -0.548814 -8.565570 0.000000 -0.000000 0.000000 -3.248228 3.980545 17.374107 2.121738 -4.006780 -2.047085 0.759490 0.688758 3.065426 -3.237685 -11.507020 5.002297 5.588507 -18.500073 -1.796400 -18.825914 -1.497007 -0.565057 -47.703793 -5.685521 4.362762 9.472955 -19.790369 -4.051012 14.378746 -2.635909 -1.559252 22.096946 7.128177 -1.144962 55.201950 7.276215 12.338468 -12.485201 26.872545 10.269102 -10.036205 6.372719 11.700814 
0.150647 -0.541457 0.960840 7.204765 4.020755 90.016201 -4.845983 -1.371888 -26.050014 -5.461156 13.838026 22.965801 7.049462 13.732811 0.068936 0.000000 -0.000000 0.000000 12.732970 0.652974 -5.536872 4.436202 0.799610 31.467250 -1.864276 -4.279473 -15.359357 0.000000 -0.000000 0.000000 -2.100646 4.015805 19.315969 1.872522 -3.782466 -1.635028 0.269319 0.395135 3.031345 -2.811613 -14.462747 0.776523 5.203888 -22.096001 -1.645762 -20.214164 -3.153844 -0.303353 -52.051398 -7.402620 7.180636 9.765827 -23.740797 1.149514 12.035211 -2.725617 -3.809917 21.470657 9.264042 -1.258045 55.299558 9.181653 12.319797 -12.911161 26.469221 11.905683 -8.696409 6.184375 12.424506 
0.154184 -0.517661 0.960418 6.984893 3.305966 90.224404 -3.063981 -1.694698 -29.743101 -7.634034 14.483457 27.558223 1.062581 9.007008 1.818342 0.000000 -0.000000 0.000000 12.423398 0.591713 -6.898592 2.386647 0.029988 30.906491 -2.915017 -4.647423 -17.829593 0.000000 -0.000000 0.000000 -0.841095 4.018037 22.359423 1.741381 -3.935955 -2.209153 -0.125019 0.162868 1.766418 -2.768507 -17.317082 -1.057551 6.923319 -24.772097 -3.352258 -21.400210 -5.106986 0.203810 -55.395555 -8.129141 10.335452 10.074013 -29.458464 7.462567 10.797908 -4.043854 -2.965327 19.935735 11.165594 -1.025364 55.127488 9.562645 11.814350 -12.721103 27.279061 14.663234 -7.054341 5.823826 12.832056 
0.157589 -0.496181 0.967473 7.889797 2.232829 90.933488 -1.784380 -2.060338 -32.416288 -12.121719 9.033139 30.810067 -8.149476 -0.753120 1.689920 0.000000 -0.000000 0.000000 10.695488 0.041872 -8.028589 1.526168 -1.379116 28.708506 -2.121117 -2.697148 -17.638031 0.000000 -0.000000 0.000000 -0.627164 3.762224 24.105340 1.939085 -4.551349 -1.759049 -0.245835 0.059940 0.463859 -1.753381 -19.141343 -1.589871 9.185876 -26.744892 -6.725945 -22.472665 -6.898416 0.811233 -56.545324 -8.826062 13.469450 9.184085 -36.859415 13.532148 10.501795 -6.357116 -2.264400 19.295173 12.457328 -0.637126 53.485929 9.325214 10.740572 -12.810785 29.039490 15.904385 -6.249110 5.859964 12.467599 
0.159315 -0.477709 0.978335 8.791280 1.012569 92.203624 -0.796515 -2.669747 -34.384199 -18.385327 -0.533675 34.490585 -10.053552 -8.484892 -0.699356 0.000000 -0.000000 0.000000 8.612018 -1.055986 -9.982907 1.885227 -1.100348 27.173795 -0.034053 -1.066428 -14.590762 0.000000 -0.000000 0.000000 -1.653712 3.672336 24.475478 2.379700 -5.152028 -1.724338 -0.012863 -0.317448 0.060509 0.038995 -20.084820 -1.890913 10.499894 -28.166088 -8.082485 -22.084966 -7.467858 1.292429 -56.314363 -9.574604 16.102164 6.106074 -44.933476 22.928788 9.726635 -9.473107 -0.416000 18.695771 12.279184 -0.695480 51.983753 8.827824 9.569106 -12.733087 30.820888 17.851421 -4.965750 6.147435 12.891842 
0.159976 -0.462200 0.991590 8.886610 0.377817 93.268093 -0.468008 -2.883484 -35.567441 -18.660879 -5.498738 41.479306 -6.973331 -4.763161 -4.006764 0.000000 -0.000000 0.000000 7.554772 -0.594187 -11.864416 2.158142 1.204360 26.432107 2.375832 0.009129 -11.203588 0.000000 -0.000000 0.000000 -2.397753 3.476794 24.375864 2.667340 -5.318835 -2.009242 0.030266 -0.754477 0.153136 1.288463 -20.925936 -2.001430 11.388077 -29.358425 -7.853183 -20.985967 -7.363037 1.590239 -54.002973 -9.734923 17.862542 1.161258 -53.434101 33.595639 10.089828 -12.479288 3.791088 18.531621 11.774053 -0.858917 50.158227 7.338868 8.853183 -12.386881 31.871218 19.622886 -5.870139 6.865732 14.257972 
